# xmcd CD database file
#
# Track frame offsets:
#	150
#	10100
#	22480
#	32710
#	41972
#	52860
#	63420
#	73785
#	84345
#	92432
#	100945
#	109857
#	120267
#	131032
#	141210
#	149452
#	158227
#	166165
#	174790
#	184447
#
# Disc length: 2584 seconds
#
# Revision: 0
# Processed by: cddbd v1.4PL0 Copyright (c) Steve Scherf et al.
# Submitted via: CdAid 2001.05.15.01
#
DISCID=120a1614
DTITLE=CHAD MORGAN - ONE FOR ONE
DYEAR=1900
DGENRE=
TTITLE0=Title 01 OUT BEHIND THE BARN
TTITLE1=Title 02 THE DUCKINWILLA DANCE
TTITLE2=Title 03 SLOW HORSES FAST WOMEN
TTITLE3=Title 04 ON THE SOCIAL SERVICE
TTITLE4=Title 05 THE GRASS NEVER GROWS
TTITLE5=Title 06 YOU'RE GETTING OLD SON
TTITLE6=Title 07 THE TWINS
TTITLE7=Title 08 THE NIGHT I WENT BELOW
TTITLE8=Title 09 WE DRUNKS ARE A SORRY LOT
TTITLE9=Title 10 POOR CHINEE
TTITLE10=Title 11 FOR SERVICES TO WOMEN
TTITLE11=Title 12 BLACK MAN JACKY JACKY
TTITLE12=Title 13 DAMNED BIG MOSQUITO
TTITLE13=Title 14 YOU JUST CAN'T WIN
TTITLE14=Title 15 ONE FOR ONE
TTITLE15=Title 16 ALL SO NICE IN THE NUT HOUSE
TTITLE16=Title 17 WHO'D WANNA BE A BRASS MONKEY
TTITLE17=Title 18 FUNNY DARNED CATTLE THESE WOMEM
TTITLE18=Title 19 PICKING A PLOT
TTITLE19=Title 20 THE ROOSTER CROWED
EXTD=
EXTT0=
EXTT1=
EXTT2=
EXTT3=
EXTT4=
EXTT5=
EXTT6=
EXTT7=
EXTT8=
EXTT9=
EXTT10=
EXTT11=
EXTT12=
EXTT13=
EXTT14=
EXTT15=
EXTT16=
EXTT17=
EXTT18=
EXTT19=
PLAYORDER=
